<?xml version="1.0" encoding="UTF-8"?>
<svg id="Layer_1" data-name="Layer 1" xmlns="http://www.w3.org/2000/svg" xmlns:xlink="http://www.w3.org/1999/xlink" viewBox="0 0 338.93 184.73">
  <defs>
    <clipPath id="clippath">
      <path d="m158.4,151.19l-22.79-12.4c.52.28,1.04.49,1.56.63l22.79,12.4c-.52-.14-1.04-.35-1.56-.63Z" style="fill: none;"/>
    </clipPath>
    <clipPath id="clippath-1">
      <path d="m135.61,138.79c-.53-.29-1.07-.66-1.6-1.1-1.06-.87-2.01-1.92-2.86-3.14l22.79,12.4c.85,1.22,1.81,2.27,2.86,3.14.53.44,1.07.81,1.6,1.1-6.84-3.72-15.96-8.68-22.79-12.4Z" style="fill: none;"/>
    </clipPath>
    <clipPath id="clippath-2">
      <path d="m159.11,27.85c-.92.55-1.96,1.46-3.11,2.71-1.16,1.26-2.2,2.55-3.12,3.88l-22.79-12.4c.92-1.33,1.96-2.62,3.12-3.88,1.15-1.25,2.19-2.16,3.11-2.71l22.79,12.4Z" style="fill: none;"/>
    </clipPath>
    <clipPath id="clippath-3">
      <path d="m35.07,169.15l-22.79-12.4c1.26-.67,2.43-1.66,3.52-2.98,1.08-1.32,2.1-2.64,3.02-3.97l22.79,12.4c-.92,1.33-1.93,2.65-3.02,3.97-1.09,1.31-2.26,2.31-3.52,2.98Z" style="fill: none;"/>
    </clipPath>
    <clipPath id="clippath-4">
      <path d="m15.65,33.13l22.79,12.4c.52.28,1.04.64,1.56,1.07,1.08.9,1.99,1.86,2.71,2.9l-22.79-12.4c-.72-1.03-1.63-1.99-2.71-2.9-.52-.43-1.04-.79-1.56-1.07Z" style="fill: none;"/>
    </clipPath>
    <clipPath id="clippath-5">
      <path d="m38.44,45.53c-.58-.32-1.16-.54-1.75-.68l-22.79-12.4c.59.14,1.17.37,1.75.68,6.84,3.72,15.96,8.68,22.79,12.4Z" style="fill: none;"/>
    </clipPath>
    <clipPath id="clippath-6">
      <path d="m201.09,159.61c1.02.55,2.06,1.08,3.13,1.57,10.77,4.96,23.89,6.37,39.39,4.19,12.72-1.79,23.67-5.55,32.84-11.28,9.17-5.72,16.69-12.79,22.53-21.19,5.85-8.39,10.16-17.52,12.95-27.4,2.78-9.86,4.19-19.8,4.2-29.81.03-15.01-2.53-28.11-7.69-39.29l22.79,12.4c5.15,11.19,7.71,24.28,7.69,39.29-.02,10.01-1.42,19.95-4.2,29.81-2.79,9.87-7.11,19-12.95,27.4-5.85,8.4-13.36,15.47-22.53,21.19-9.16,5.73-20.12,9.49-32.84,11.28-15.49,2.18-28.62.77-39.39-4.19-1.07-.49-2.11-1.02-3.13-1.57-6.84-3.72-15.96-8.68-22.79-12.4Z" style="fill: none;"/>
    </clipPath>
    <clipPath id="clippath-7">
      <path d="m249.88,157.94l-22.79-12.4c4.99,2.71,11,3.57,18.03,2.59,7.98-1.12,14.59-4.55,19.84-10.29,5.26-5.74,9.19-13.24,11.81-22.48l22.79,12.4c-2.62,9.25-6.55,16.74-11.81,22.48-5.25,5.74-11.86,9.17-19.84,10.29-7.03.99-13.05.13-18.03-2.59Z" style="fill: none;"/>
    </clipPath>
    <clipPath id="clippath-8">
      <path d="m308.83,24.54c10.01,5.44,17.47,13.53,22.41,24.24l-22.79-12.4c-4.94-10.71-12.4-18.8-22.41-24.24,6.84,3.72,15.96,8.68,22.79,12.4Z" style="fill: none;"/>
    </clipPath>
    <clipPath id="clippath-9">
      <path d="m260.65,26.67l22.79,12.4c1.2.65,2.34,1.41,3.42,2.27,5.69,4.52,9.89,11.47,12.61,20.85,2.71,9.38,4.06,20.8,4.04,34.26-.02,11.63-1.35,22.07-3.97,31.31l-22.79-12.4c2.62-9.25,3.94-19.68,3.97-31.31.03-13.46-1.32-24.88-4.04-34.26-2.72-9.38-6.93-16.33-12.61-20.85-1.08-.86-2.23-1.62-3.42-2.27Z" style="fill: none;"/>
    </clipPath>
    <clipPath id="clippath-10">
      <path d="m283.45,39.07c-5.09-2.77-11.22-3.65-18.37-2.65-8.44,1.19-15.26,4.78-20.43,10.8-5.19,6.01-8.98,13.61-11.37,22.78-2.39,9.18-3.59,19.13-3.61,29.84-.02,13.31,1.3,24.74,3.99,34.26,2.68,9.52,6.84,16.62,12.47,21.28,1.18.98,2.43,1.83,3.75,2.55l-22.79-12.4c-1.32-.72-2.57-1.57-3.75-2.55-5.63-4.66-9.79-11.76-12.47-21.28-2.69-9.53-4.01-20.95-3.99-34.26.02-10.71,1.22-20.67,3.61-29.84,2.39-9.18,6.17-16.77,11.37-22.78,5.18-6.02,11.99-9.61,20.43-10.8,7.15-1,13.27-.13,18.37,2.65,6.84,3.72,15.96,8.68,22.79,12.4Z" style="fill: none;"/>
    </clipPath>
    <clipPath id="clippath-11">
      <path d="m223.89,172l-22.79-12.4c-9.24-5.02-16.35-12.53-21.34-22.53-5.55-11.09-8.31-24.78-8.28-41.06.03-15.36,2.94-29.39,8.73-42.08,5.79-12.68,14.11-23.19,24.97-31.52,10.85-8.33,23.83-13.55,38.93-15.67,16.41-2.31,29.95-.73,40.62,4.7.44.23.88.46,1.32.7l22.79,12.4c-.44-.24-.87-.47-1.32-.7-10.66-5.43-24.2-7.01-40.62-4.7-15.1,2.12-28.07,7.34-38.93,15.67-10.86,8.33-19.18,18.83-24.97,31.52-5.79,12.69-8.7,26.71-8.73,42.08-.03,16.28,2.72,29.97,8.28,41.06,5,10,12.11,17.51,21.34,22.53Z" style="fill: none;"/>
    </clipPath>
  </defs>
  <g style="isolation: isolate;">
    <polygon points="171.72 154.71 171.71 163.8 148.91 151.4 148.93 142.31 171.72 154.71" style="fill: #2f1451;"/>
    <polygon points="159.97 151.82 137.17 139.42 148.93 142.31 171.72 154.71 159.97 151.82" style="fill: #402668;"/>
    <g style="isolation: isolate;">
      <g style="clip-path: url(#clippath);">
        <g style="isolation: isolate;">
          <path d="m158.4,151.19l-22.79-12.4c.1.05.19.1.29.15l22.79,12.4c-.1-.05-.19-.1-.29-.15" style="fill: #3b2161;"/>
          <path d="m158.69,151.34l-22.79-12.4c.42.21.85.37,1.27.48l22.79,12.4c-.43-.11-.85-.27-1.27-.48" style="fill: #3d2364;"/>
        </g>
      </g>
    </g>
    <g style="isolation: isolate;">
      <g style="clip-path: url(#clippath-1);">
        <g style="isolation: isolate;">
          <path d="m153.94,146.95l-22.79-12.4c.85,1.22,1.81,2.27,2.86,3.14.53.44,1.07.81,1.6,1.1l22.79,12.4c-.53-.29-1.07-.66-1.6-1.1-1.06-.87-2.01-1.92-2.86-3.14" style="fill: #301552;"/>
        </g>
      </g>
    </g>
    <polygon points="171.71 163.8 105.45 173.11 82.66 160.71 148.91 151.4 171.71 163.8" style="fill: #442a6f;"/>
    <polygon points="105.45 173.11 82.66 160.71 82.68 151.62 105.47 164.02 105.45 173.11" style="fill: #2f1451;"/>
    <polygon points="105.47 164.02 82.68 151.62 95.95 143.41 118.74 155.81 105.47 164.02" style="fill: #42286c;"/>
    <polygon points="170.51 12.4 170.49 21.49 147.7 9.1 147.71 0 170.51 12.4" style="fill: #2f1451;"/>
    <polygon points="170.49 21.49 159.11 27.85 136.31 15.45 147.7 9.1 170.49 21.49" style="fill: #43296d;"/>
    <g style="isolation: isolate;">
      <g style="clip-path: url(#clippath-2);">
        <g style="isolation: isolate;">
          <path d="m159.11,27.85l-22.79-12.4c-.14.09-.29.18-.44.29l22.79,12.4c.15-.1.3-.2.44-.29" style="fill: #3d2364;"/>
          <path d="m158.66,28.14l-22.79-12.4c-.39.27-.8.6-1.22.98l22.79,12.4c.43-.38.84-.71,1.22-.98" style="fill: #3b2161;"/>
          <path d="m157.44,29.12l-22.79-12.4c-.46.41-.94.9-1.45,1.44-.19.21-.38.42-.57.63l22.79,12.4c.19-.21.37-.42.57-.63.5-.55.98-1.03,1.45-1.44" style="fill: #391f5e;"/>
          <path d="m155.43,31.19l-22.79-12.4c-.9,1.01-1.71,2.05-2.45,3.11l22.79,12.4c.74-1.06,1.56-2.09,2.45-3.11" style="fill: #371c5b;"/>
          <path d="m152.97,34.29l-22.79-12.4s-.07.1-.1.15l22.79,12.4s.07-.1.1-.15" style="fill: #341a58;"/>
        </g>
      </g>
    </g>
    <polygon points="118.74 155.81 95.95 143.41 75.53 114.36 98.32 126.76 118.74 155.81" style="fill: #2e124f;"/>
    <polygon points="72.94 168.59 72.92 177.68 50.13 165.28 50.15 156.19 72.94 168.59" style="fill: #2f1451;"/>
    <polygon points="152.87 34.44 114.5 91.61 91.71 79.22 130.08 22.04 152.87 34.44" style="fill: #3a2060;"/>
    <polygon points="114.5 91.61 153.94 146.95 131.15 134.55 91.71 79.22 114.5 91.61" style="fill: #2e124f;"/>
    <polygon points="98.32 126.76 75.53 114.36 69.42 103.07 92.22 115.47 98.32 126.76" style="fill: #2e124f;"/>
    <polygon points="92.22 115.47 91.63 115.55 68.83 103.15 69.42 103.07 92.22 115.47" style="fill: #442a6f;"/>
    <polygon points="60.39 163.27 37.6 150.87 50.15 156.19 72.94 168.59 60.39 163.27" style="fill: #3d2364;"/>
    <polygon points="91.63 115.55 60.39 163.27 37.6 150.87 68.83 103.15 91.63 115.55" style="fill: #3a2060;"/>
    <polygon points="104.14 79.75 81.35 67.35 111.1 21.32 133.89 33.72 104.14 79.75" style="fill: #3a2060;"/>
    <polygon points="103.55 79.83 80.76 67.43 81.35 67.35 104.14 79.75 103.55 79.83" style="fill: #442a6f;"/>
    <polygon points="133.89 33.72 121.24 28.42 98.45 16.02 111.1 21.32 133.89 33.72" style="fill: #3d2364;"/>
    <polygon points="97.45 68.33 103.55 79.83 80.76 67.43 74.65 55.93 97.45 68.33" style="fill: #2e124f;"/>
    <polygon points="121.26 19.32 98.47 6.92 147.71 0 170.51 12.4 121.26 19.32" style="fill: #442a6f;"/>
    <polygon points="121.24 28.42 98.45 16.02 98.47 6.92 121.26 19.32 121.24 28.42" style="fill: #2f1451;"/>
    <polygon points="41.61 162.21 18.82 149.81 58.37 91.3 81.16 103.7 41.61 162.21" style="fill: #3a2061;"/>
    <polygon points="72.92 177.68 22.79 184.73 0 172.33 50.13 165.28 72.92 177.68" style="fill: #442a6f;"/>
    <g style="isolation: isolate;">
      <g style="clip-path: url(#clippath-3);">
        <g style="isolation: isolate;">
          <path d="m35.07,169.15l-22.79-12.4c.33-.18.65-.37.97-.59l22.79,12.4c-.32.22-.64.42-.97.59" style="fill: #3d2364;"/>
          <path d="m36.05,168.56l-22.79-12.4c.39-.27.76-.57,1.13-.9l22.79,12.4c-.37.33-.75.63-1.13.9" style="fill: #3b2161;"/>
          <path d="m37.18,167.66l-22.79-12.4c.38-.34.75-.72,1.11-1.13l22.79,12.4c-.36.41-.73.79-1.11,1.13" style="fill: #391f5e;"/>
          <path d="m38.29,166.53l-22.79-12.4c.1-.12.2-.23.31-.36,1.03-1.25,1.99-2.49,2.87-3.75l22.79,12.4c-.88,1.26-1.84,2.5-2.87,3.75-.1.12-.2.24-.31.36" style="fill: #371c5b;"/>
          <path d="m41.46,162.42l-22.79-12.4c.05-.07.1-.14.15-.22l22.79,12.4c-.05.07-.1.14-.15.22" style="fill: #341a58;"/>
        </g>
      </g>
    </g>
    <polygon points="22.81 175.64 .02 163.24 12.28 156.75 35.07 169.15 22.81 175.64" style="fill: #43296d;"/>
    <polygon points="22.79 184.73 0 172.33 .02 163.24 22.81 175.64 22.79 184.73" style="fill: #2f1451;"/>
    <polygon points="91.4 23.52 91.39 32.61 68.59 20.21 68.61 11.12 91.4 23.52" style="fill: #2f1451;"/>
    <polygon points="91.39 32.61 78.12 40.71 55.32 28.31 68.59 20.21 91.39 32.61" style="fill: #43286c;"/>
    <polygon points="78.12 40.71 97.45 68.33 74.65 55.93 55.32 28.31 78.12 40.71" style="fill: #2e124f;"/>
    <polygon points="81.16 103.7 58.37 91.3 19.92 37.1 42.71 49.5 81.16 103.7" style="fill: #2e124f;"/>
    <g style="isolation: isolate;">
      <g style="clip-path: url(#clippath-4);">
        <g style="isolation: isolate;">
          <path d="m42.71,49.5l-22.79-12.4c-.72-1.03-1.63-1.99-2.71-2.9-.52-.43-1.04-.79-1.56-1.07l22.79,12.4c.52.28,1.04.64,1.56,1.07,1.08.9,1.99,1.86,2.71,2.9" style="fill: #301552;"/>
        </g>
      </g>
    </g>
    <g style="isolation: isolate;">
      <g style="clip-path: url(#clippath-5);">
        <g style="isolation: isolate;">
          <path d="m38.44,45.53l-22.79-12.4c-.1-.05-.19-.1-.29-.15l22.79,12.4c.1.05.19.1.29.15" style="fill: #3b2161;"/>
          <path d="m38.16,45.38l-22.79-12.4c-.44-.22-.89-.38-1.33-.5l22.79,12.4c.45.12.89.28,1.33.5" style="fill: #3d2364;"/>
          <path d="m36.82,44.88l-22.79-12.4s-.09-.02-.13-.03l22.79,12.4s.09.02.13.03" style="fill: #3f2568;"/>
        </g>
      </g>
    </g>
    <polygon points="36.69 44.85 24.84 41.97 2.04 29.57 13.9 32.45 36.69 44.85" style="fill: #402668;"/>
    <polygon points="24.84 41.97 2.04 29.57 2.06 20.47 24.85 32.87 24.84 41.97" style="fill: #2f1451;"/>
    <polygon points="24.85 32.87 2.06 20.47 68.61 11.12 91.4 23.52 24.85 32.87" style="fill: #442a6f;"/>
  </g>
  <g style="isolation: isolate;">
    <g style="isolation: isolate;">
      <g style="clip-path: url(#clippath-6);">
        <g style="isolation: isolate;">
          <path d="m331.24,48.79l-22.79-12.4c5.15,11.19,7.71,24.28,7.69,39.29-.02,10.01-1.42,19.95-4.2,29.81-.65,2.31-1.39,4.57-2.2,6.79l22.79,12.4c.82-2.22,1.55-4.49,2.2-6.79,2.78-9.86,4.19-19.8,4.2-29.81.03-15.01-2.53-28.11-7.69-39.29" style="fill: #301552;"/>
          <path d="m332.52,124.69l-22.79-12.4c-1.48,4.01-3.22,7.89-5.24,11.64l22.79,12.4c2.02-3.75,3.76-7.63,5.24-11.64" style="fill: #321855;"/>
          <path d="m327.28,136.33l-22.79-12.4c-1.65,3.07-3.49,6.06-5.51,8.96-.05.07-.1.14-.15.21l22.79,12.4c.05-.07.1-.14.15-.21,2.02-2.9,3.86-5.89,5.51-8.96" style="fill: #341a58;"/>
          <path d="m321.62,145.5l-22.79-12.4c-1.57,2.24-3.27,4.39-5.08,6.44l22.79,12.4c1.81-2.05,3.5-4.2,5.08-6.44" style="fill: #371c5b;"/>
          <path d="m316.55,151.95l-22.79-12.4c-1.87,2.12-3.87,4.14-6,6.05l22.79,12.4c2.13-1.92,4.13-3.93,6-6.05" style="fill: #391f5e;"/>
          <path d="m310.55,158l-22.79-12.4c-2.48,2.23-5.12,4.32-7.94,6.27l22.79,12.4c2.82-1.95,5.47-4.04,7.94-6.27" style="fill: #3b2161;"/>
          <path d="m302.6,164.27l-22.79-12.4c-1.1.76-2.22,1.5-3.37,2.21-2.29,1.43-4.7,2.75-7.22,3.93l22.79,12.4c2.52-1.19,4.92-2.5,7.22-3.93,1.15-.72,2.27-1.45,3.37-2.21" style="fill: #3d2364;"/>
          <path d="m292.02,170.42l-22.79-12.4c-7.54,3.56-16.08,6.01-25.62,7.35-11.47,1.61-21.63,1.26-30.51-1.04l22.79,12.4c8.88,2.3,19.05,2.65,30.51,1.04,9.54-1.34,18.08-3.79,25.62-7.35" style="fill: #3f2568;"/>
          <path d="m235.88,176.72l-22.79-12.4c-3.12-.81-6.07-1.86-8.87-3.15-.41-.19-.82-.38-1.22-.58l22.79,12.4c.4.2.81.39,1.22.58,2.8,1.29,5.76,2.34,8.87,3.15" style="fill: #3d2364;"/>
          <path d="m225.79,172.99l-22.79-12.4c-.64-.32-1.28-.65-1.91-.99l22.79,12.4c.63.34,1.26.67,1.91.99" style="fill: #3b2161;"/>
        </g>
      </g>
    </g>
    <g style="isolation: isolate;">
      <g style="clip-path: url(#clippath-7);">
        <g style="isolation: isolate;">
          <path d="m249.88,157.94l-22.79-12.4c.27.15.55.29.83.43l22.79,12.4c-.28-.14-.56-.28-.83-.43" style="fill: #3b2161;"/>
          <path d="m250.71,158.37l-22.79-12.4c1.43.7,2.95,1.26,4.54,1.68l22.79,12.4c-1.59-.41-3.11-.97-4.54-1.68" style="fill: #3d2364;"/>
          <path d="m255.25,160.05l-22.79-12.4c3.77.98,7.99,1.14,12.66.48,3.57-.5,6.86-1.46,9.89-2.89l22.79,12.4c-3.02,1.43-6.32,2.39-9.89,2.89-4.67.66-8.89.5-12.66-.48" style="fill: #3f2568;"/>
          <path d="m277.8,157.64l-22.79-12.4c1.54-.73,3.02-1.58,4.42-2.55l22.79,12.4c-1.4.97-2.87,1.82-4.42,2.55" style="fill: #3d2364;"/>
          <path d="m282.21,155.09l-22.79-12.4c1.11-.77,2.17-1.61,3.19-2.53l22.79,12.4c-1.02.92-2.08,1.76-3.19,2.53" style="fill: #3b2161;"/>
          <path d="m285.4,152.57l-22.79-12.4c.81-.73,1.59-1.51,2.35-2.33.17-.18.34-.37.5-.56l22.79,12.4c-.17.19-.33.37-.5.56-.75.82-1.54,1.6-2.35,2.33" style="fill: #391f5e;"/>
          <path d="m288.25,149.68l-22.79-12.4c1.08-1.22,2.1-2.52,3.06-3.89l22.79,12.4c-.96,1.37-1.98,2.67-3.06,3.89" style="fill: #371c5b;"/>
          <path d="m291.31,145.79l-22.79-12.4c1.1-1.57,2.12-3.24,3.07-5l22.79,12.4c-.95,1.77-1.97,3.43-3.07,5" style="fill: #341a58;"/>
          <path d="m294.39,140.79l-22.79-12.4c1.28-2.39,2.43-4.96,3.44-7.71l22.79,12.4c-1.01,2.75-2.16,5.32-3.44,7.71" style="fill: #321855;"/>
          <path d="m297.83,133.08l-22.79-12.4c.63-1.7,1.2-3.48,1.72-5.32l22.79,12.4c-.52,1.84-1.1,3.62-1.72,5.32" style="fill: #301552;"/>
        </g>
      </g>
    </g>
    <g style="isolation: isolate;">
      <g style="clip-path: url(#clippath-8);">
        <g style="isolation: isolate;">
          <path d="m308.83,24.54l-22.79-12.4c10.01,5.44,17.47,13.53,22.41,24.24l22.79,12.4c-4.94-10.71-12.4-18.8-22.41-24.24" style="fill: #301552;"/>
        </g>
      </g>
    </g>
    <g style="isolation: isolate;">
      <g style="clip-path: url(#clippath-9);">
        <g style="isolation: isolate;">
          <path d="m299.56,127.76l-22.79-12.4c2.62-9.25,3.94-19.68,3.97-31.31.03-13.46-1.32-24.88-4.04-34.26-2.72-9.38-6.93-16.33-12.61-20.85-1.08-.86-2.23-1.62-3.42-2.27l22.79,12.4c1.2.65,2.34,1.41,3.42,2.27,5.69,4.52,9.89,11.47,12.61,20.85,2.71,9.38,4.06,20.8,4.04,34.26-.02,11.63-1.35,22.07-3.97,31.31" style="fill: #301552;"/>
        </g>
      </g>
    </g>
    <g style="isolation: isolate;">
      <g style="clip-path: url(#clippath-10);">
        <g style="isolation: isolate;">
          <path d="m283.45,39.07l-22.79-12.4c-.28-.15-.57-.3-.85-.44l22.79,12.4c.29.14.57.29.85.44" style="fill: #3b2161;"/>
          <path d="m282.59,38.63l-22.79-12.4c-1.46-.72-3.01-1.29-4.63-1.71l22.79,12.4c1.63.42,3.17.99,4.63,1.71" style="fill: #3d2364;"/>
          <path d="m277.96,36.92l-22.79-12.4c-3.84-1-8.13-1.16-12.88-.49-3.71.52-7.1,1.51-10.18,2.96l22.79,12.4c3.08-1.45,6.47-2.44,10.18-2.96,4.74-.67,9.04-.5,12.88.49" style="fill: #3f2568;"/>
          <path d="m254.9,39.38l-22.79-12.4c-1.53.72-2.98,1.56-4.35,2.51l22.79,12.4c1.37-.95,2.82-1.79,4.35-2.51" style="fill: #3d2364;"/>
          <path d="m250.55,41.89l-22.79-12.4c-1.06.73-2.08,1.54-3.05,2.41l22.79,12.4c.97-.87,1.98-1.68,3.05-2.41" style="fill: #3b2161;"/>
          <path d="m247.5,44.3l-22.79-12.4c-.9.81-1.76,1.67-2.57,2.6l22.79,12.4c.82-.93,1.68-1.79,2.57-2.6" style="fill: #391f5e;"/>
          <path d="m244.93,46.9l-22.79-12.4c-.09.11-.19.22-.28.33-1.01,1.17-1.96,2.39-2.86,3.68l22.79,12.4c.9-1.28,1.86-2.51,2.86-3.68.09-.11.19-.22.28-.33" style="fill: #371c5b;"/>
          <path d="m241.79,50.9l-22.79-12.4c-1.12,1.59-2.15,3.27-3.11,5.05l22.79,12.4c.95-1.77,1.99-3.46,3.11-5.05" style="fill: #341a58;"/>
          <path d="m238.68,55.95l-22.79-12.4c-1.26,2.34-2.38,4.84-3.35,7.49l22.79,12.4c.98-2.66,2.09-5.15,3.35-7.49" style="fill: #321855;"/>
          <path d="m235.33,63.44l-22.79-12.4c-.77,2.09-1.45,4.28-2.05,6.57-2.39,9.18-3.59,19.13-3.61,29.84-.02,13.31,1.3,24.74,3.99,34.26,2.68,9.52,6.84,16.62,12.47,21.28,1.18.98,2.43,1.83,3.75,2.55l22.79,12.4c-1.32-.72-2.57-1.57-3.75-2.55-5.63-4.66-9.79-11.76-12.47-21.28-2.69-9.53-4.01-20.95-3.99-34.26.02-10.71,1.22-20.67,3.61-29.84.59-2.29,1.28-4.48,2.05-6.57" style="fill: #301552;"/>
        </g>
      </g>
    </g>
    <g style="isolation: isolate;">
      <g style="clip-path: url(#clippath-11);">
        <g style="isolation: isolate;">
          <path d="m223.89,172l-22.79-12.4c-9.24-5.02-16.35-12.53-21.34-22.53-5.55-11.09-8.31-24.78-8.28-41.06.02-12.8,2.05-24.67,6.07-35.61l22.79,12.4c-4.02,10.94-6.05,22.81-6.07,35.61-.03,16.28,2.72,29.97,8.28,41.06,5,10,12.11,17.51,21.34,22.53" style="fill: #301552;"/>
          <path d="m200.33,72.8l-22.79-12.4c.81-2.19,1.69-4.35,2.66-6.46.81-1.77,1.66-3.49,2.57-5.17l22.79,12.4c-.91,1.68-1.76,3.41-2.57,5.17-.97,2.12-1.85,4.27-2.66,6.46" style="fill: #321855;"/>
          <path d="m205.56,61.16l-22.79-12.4c1.58-2.93,3.31-5.74,5.19-8.42l22.79,12.4c-1.88,2.68-3.61,5.48-5.19,8.42" style="fill: #341a58;"/>
          <path d="m210.75,52.74l-22.79-12.4c1.74-2.47,3.6-4.84,5.59-7.09l22.79,12.4c-1.99,2.25-3.85,4.62-5.59,7.09" style="fill: #371c5b;"/>
          <path d="m216.34,45.65l-22.79-12.4c2.05-2.32,4.23-4.52,6.55-6.61l22.79,12.4c-2.32,2.09-4.5,4.29-6.55,6.61" style="fill: #391f5e;"/>
          <path d="m222.88,39.04l-22.79-12.4c1.63-1.47,3.32-2.87,5.08-4.22.97-.75,1.96-1.47,2.97-2.17l22.79,12.4c-1.01.7-2,1.42-2.97,2.17-1.76,1.35-3.46,2.76-5.08,4.22" style="fill: #3b2161;"/>
          <path d="m230.94,32.65l-22.79-12.4c3.38-2.34,6.96-4.4,10.73-6.18l22.79,12.4c-3.77,1.78-7.35,3.84-10.73,6.18" style="fill: #3d2364;"/>
          <path d="m241.67,26.48l-22.79-12.4c7.62-3.59,16.03-6.03,25.22-7.33,11.66-1.64,21.88-1.32,30.64.95l22.79,12.4c-8.76-2.27-18.97-2.59-30.64-.95-9.19,1.29-17.6,3.73-25.22,7.33" style="fill: #3f2568;"/>
          <path d="m297.53,20.1l-22.79-12.4c3.35.87,6.48,2.02,9.4,3.46l22.79,12.4c-2.92-1.44-6.06-2.59-9.4-3.46" style="fill: #3d2364;"/>
          <path d="m306.93,23.56l-22.79-12.4c.19.1.39.19.58.29.44.23.88.46,1.32.7l22.79,12.4c-.44-.24-.87-.47-1.32-.7-.19-.1-.38-.19-.58-.29" style="fill: #3b2161;"/>
        </g>
      </g>
    </g>
  </g>
</svg>