<?xml version="1.0" encoding="UTF-8"?>
<svg id="Layer_2" data-name="Layer 2" xmlns="http://www.w3.org/2000/svg" xmlns:xlink="http://www.w3.org/1999/xlink" viewBox="0 0 167.45 173.03">
  <defs>
    <clipPath id="clippath">
      <path d="m29.63,153.89c1.01.55,2.05,1.07,3.11,1.56,10.77,4.97,23.89,6.37,39.39,4.19,12.72-1.79,23.67-5.55,32.85-11.28,9.17-5.72,16.68-12.79,22.53-21.18,5.85-8.4,10.16-17.53,12.95-27.4,2.79-9.87,4.19-19.81,4.2-29.81.03-15.02-2.53-28.12-7.69-39.29l22.79,12.4c5.15,11.18,7.71,24.28,7.69,39.29-.02,10-1.41,19.94-4.2,29.81-2.79,9.87-7.11,18.99-12.95,27.4-5.85,8.39-13.35,15.46-22.53,21.18-9.17,5.73-20.13,9.49-32.85,11.28-15.49,2.18-28.62.78-39.39-4.19-1.06-.49-2.1-1.01-3.11-1.56-6.84-3.72-15.96-8.68-22.79-12.4Z" style="fill: none;"/>
    </clipPath>
    <clipPath id="clippath-1">
      <path d="m78.4,152.22l-22.79-12.4c4.99,2.71,11,3.58,18.03,2.59,7.98-1.12,14.59-4.55,19.84-10.29,5.26-5.74,9.19-13.24,11.81-22.48l22.79,12.4c-2.62,9.25-6.55,16.74-11.81,22.48-5.25,5.74-11.86,9.17-19.84,10.29-7.03.99-13.05.13-18.03-2.59Z" style="fill: none;"/>
    </clipPath>
    <clipPath id="clippath-2">
      <path d="m137.35,18.82c10.01,5.44,17.48,13.53,22.42,24.25l-22.79-12.4c-4.94-10.73-12.41-18.81-22.42-24.25,6.84,3.72,15.96,8.68,22.79,12.4Z" style="fill: none;"/>
    </clipPath>
    <clipPath id="clippath-3">
      <path d="m89.19,20.96l22.79,12.4c1.2.65,2.33,1.4,3.42,2.26,5.69,4.53,9.89,11.47,12.61,20.85,2.71,9.38,4.06,20.8,4.04,34.26-.02,11.63-1.34,22.07-3.97,31.31l-22.79-12.4c2.63-9.25,3.94-19.68,3.97-31.31.03-13.46-1.32-24.88-4.04-34.26-2.72-9.38-6.93-16.32-12.61-20.85-1.08-.86-2.22-1.61-3.42-2.26Z" style="fill: none;"/>
    </clipPath>
    <clipPath id="clippath-4">
      <path d="m111.98,33.35c-5.1-2.77-11.22-3.66-18.37-2.65-8.44,1.19-15.25,4.79-20.43,10.8-5.18,6.01-8.97,13.61-11.37,22.79-2.39,9.18-3.59,19.12-3.61,29.84-.02,13.31,1.31,24.74,3.99,34.26,2.68,9.52,6.84,16.62,12.47,21.28,1.18.98,2.43,1.83,3.75,2.55l-22.79-12.4c-1.32-.72-2.57-1.57-3.75-2.55-5.63-4.66-9.79-11.76-12.47-21.28-2.68-9.52-4.01-20.95-3.99-34.26.02-10.71,1.22-20.66,3.61-29.84,2.4-9.18,6.18-16.78,11.37-22.79,5.18-6.01,11.99-9.61,20.43-10.8,7.15-1,13.28-.12,18.37,2.65,6.84,3.72,15.96,8.68,22.79,12.4Z" style="fill: none;"/>
    </clipPath>
    <clipPath id="clippath-5">
      <path d="m52.43,166.29l-22.79-12.4c-9.24-5.02-16.36-12.54-21.36-22.54C2.72,120.26-.03,106.58,0,90.3c.03-15.37,2.94-29.4,8.73-42.08,5.79-12.69,14.11-23.19,24.97-31.52C44.55,8.38,57.53,3.15,72.63,1.03c16.41-2.31,29.95-.73,40.63,4.71.44.22.87.45,1.3.69l22.79,12.4c-.43-.23-.86-.46-1.3-.69-10.67-5.44-24.21-7.01-40.63-4.71-15.09,2.12-28.07,7.35-38.93,15.67-10.86,8.33-19.18,18.83-24.97,31.52-5.79,12.68-8.7,26.7-8.73,42.08-.03,16.28,2.72,29.96,8.28,41.05,5,10,12.12,17.51,21.36,22.54Z" style="fill: none;"/>
    </clipPath>
  </defs>
  <g id="Layer_2-2" data-name="Layer 2">
    <g style="isolation: isolate;">
      <g style="isolation: isolate;">
        <g style="clip-path: url(#clippath);">
          <g style="isolation: isolate;">
            <path d="m159.77,43.07l-22.79-12.4c5.15,11.18,7.71,24.28,7.69,39.29-.02,10-1.41,19.94-4.2,29.81-.65,2.3-1.38,4.56-2.2,6.78l22.79,12.4c.82-2.22,1.55-4.48,2.2-6.78,2.79-9.87,4.19-19.81,4.2-29.81.03-15.02-2.53-28.12-7.69-39.29" style="fill: #301552;"/>
            <path d="m161.05,118.96l-22.79-12.4c-1.48,4.02-3.23,7.91-5.25,11.67l22.79,12.4c2.02-3.76,3.77-7.65,5.25-11.67" style="fill: #321855;"/>
            <path d="m155.8,130.62l-22.79-12.4c-1.65,3.07-3.49,6.06-5.5,8.96-.05.08-.11.15-.16.23l22.79,12.4c.05-.08.11-.15.16-.23,2.02-2.9,3.85-5.88,5.5-8.96" style="fill: #341a58;"/>
            <path d="m150.14,139.81l-22.79-12.4c-1.57,2.23-3.25,4.37-5.06,6.41l22.79,12.4c1.8-2.04,3.49-4.18,5.06-6.41" style="fill: #371c5b;"/>
            <path d="m145.08,146.22l-22.79-12.4c-1.87,2.12-3.88,4.14-6.01,6.06l22.79,12.4c2.13-1.92,4.13-3.94,6.01-6.06" style="fill: #391f5e;"/>
            <path d="m139.07,152.28l-22.79-12.4c-2.47,2.23-5.12,4.32-7.94,6.27l22.79,12.4c2.82-1.95,5.47-4.04,7.94-6.27" style="fill: #3b2161;"/>
            <path d="m131.13,158.55l-22.79-12.4c-1.09.76-2.21,1.49-3.36,2.21-2.29,1.43-4.7,2.74-7.22,3.93l22.79,12.4c2.52-1.19,4.92-2.5,7.22-3.93,1.15-.72,2.27-1.45,3.36-2.21" style="fill: #3d2364;"/>
            <path d="m120.56,164.69l-22.79-12.4c-7.55,3.56-16.09,6.01-25.63,7.35-11.46,1.61-21.63,1.27-30.51-1.04l22.79,12.4c8.88,2.3,19.04,2.65,30.51,1.04,9.54-1.34,18.09-3.79,25.63-7.35" style="fill: #3f2568;"/>
            <path d="m64.42,171l-22.79-12.4c-3.12-.81-6.08-1.86-8.88-3.15-.4-.19-.8-.38-1.2-.57l22.79,12.4c.4.2.8.39,1.2.57,2.8,1.29,5.76,2.34,8.88,3.15" style="fill: #3d2364;"/>
            <path d="m54.34,167.28l-22.79-12.4c-.65-.32-1.28-.65-1.91-.99l22.79,12.4c.63.34,1.26.67,1.91.99" style="fill: #3b2161;"/>
          </g>
        </g>
      </g>
      <g style="isolation: isolate;">
        <g style="clip-path: url(#clippath-1);">
          <g style="isolation: isolate;">
            <path d="m78.4,152.22l-22.79-12.4c.27.15.55.29.83.43l22.79,12.4c-.28-.14-.56-.28-.83-.43" style="fill: #3b2161;"/>
            <path d="m79.23,152.65l-22.79-12.4c1.43.71,2.95,1.26,4.54,1.68l22.79,12.4c-1.6-.41-3.11-.97-4.54-1.68" style="fill: #3d2364;"/>
            <path d="m83.78,154.33l-22.79-12.4c3.77.98,7.99,1.14,12.66.48,3.57-.5,6.86-1.46,9.89-2.89l22.79,12.4c-3.02,1.43-6.32,2.39-9.89,2.89-4.67.66-8.89.5-12.66-.48" style="fill: #3f2568;"/>
            <path d="m106.32,151.92l-22.79-12.4c1.54-.73,3.02-1.58,4.42-2.54l22.79,12.4c-1.4.97-2.87,1.82-4.42,2.54" style="fill: #3d2364;"/>
            <path d="m110.74,149.37l-22.79-12.4c1.11-.77,2.17-1.61,3.19-2.53l22.79,12.4c-1.02.92-2.08,1.76-3.19,2.53" style="fill: #3b2161;"/>
            <path d="m113.93,146.85l-22.79-12.4c.81-.73,1.59-1.51,2.35-2.33.17-.18.34-.37.5-.56l22.79,12.4c-.17.19-.33.37-.5.56-.75.82-1.54,1.6-2.35,2.33" style="fill: #391f5e;"/>
            <path d="m116.78,143.96l-22.79-12.4c1.08-1.22,2.1-2.52,3.06-3.89l22.79,12.4c-.96,1.37-1.98,2.67-3.06,3.89" style="fill: #371c5b;"/>
            <path d="m119.84,140.07l-22.79-12.4c1.1-1.57,2.12-3.24,3.07-5l22.79,12.4c-.95,1.77-1.97,3.43-3.07,5" style="fill: #341a58;"/>
            <path d="m122.91,135.07l-22.79-12.4c1.28-2.39,2.43-4.96,3.44-7.71l22.79,12.4c-1.01,2.75-2.16,5.32-3.44,7.71" style="fill: #321855;"/>
            <path d="m126.36,127.36l-22.79-12.4c.63-1.7,1.2-3.48,1.72-5.32l22.79,12.4c-.52,1.84-1.1,3.62-1.72,5.32" style="fill: #301552;"/>
          </g>
        </g>
      </g>
      <g style="isolation: isolate;">
        <g style="clip-path: url(#clippath-2);">
          <g style="isolation: isolate;">
            <path d="m137.35,18.82l-22.79-12.4c10.01,5.44,17.48,13.53,22.42,24.25l22.79,12.4c-4.94-10.73-12.41-18.81-22.42-24.25" style="fill: #301552;"/>
          </g>
        </g>
      </g>
      <g style="isolation: isolate;">
        <g style="clip-path: url(#clippath-3);">
          <g style="isolation: isolate;">
            <path d="m128.08,122.03l-22.79-12.4c2.63-9.25,3.94-19.68,3.97-31.31.03-13.46-1.32-24.88-4.04-34.26-2.72-9.38-6.93-16.32-12.61-20.85-1.08-.86-2.22-1.61-3.42-2.26l22.79,12.4c1.2.65,2.33,1.4,3.42,2.26,5.69,4.53,9.89,11.47,12.61,20.85,2.71,9.38,4.06,20.8,4.04,34.26-.02,11.63-1.34,22.07-3.97,31.31" style="fill: #301552;"/>
          </g>
        </g>
      </g>
      <g style="isolation: isolate;">
        <g style="clip-path: url(#clippath-4);">
          <g style="isolation: isolate;">
            <path d="m111.98,33.35l-22.79-12.4c-.28-.15-.57-.3-.86-.44l22.79,12.4c.29.14.57.29.86.44" style="fill: #3b2161;"/>
            <path d="m111.12,32.91l-22.79-12.4c-1.47-.72-3.01-1.29-4.64-1.72l22.79,12.4c1.63.42,3.18.99,4.64,1.72" style="fill: #3d2364;"/>
            <path d="m106.48,31.2l-22.79-12.4c-3.84-.99-8.13-1.16-12.87-.49-3.7.52-7.09,1.5-10.16,2.95l22.79,12.4c3.07-1.45,6.46-2.43,10.16-2.95,4.74-.67,9.03-.5,12.87.49" style="fill: #3f2568;"/>
            <path d="m83.45,33.65l-22.79-12.4c-1.53.72-2.99,1.56-4.36,2.51l22.79,12.4c1.38-.95,2.83-1.79,4.36-2.51" style="fill: #3d2364;"/>
            <path d="m79.08,36.17l-22.79-12.4c-1.07.74-2.09,1.55-3.06,2.42l22.79,12.4c.97-.88,1.99-1.68,3.06-2.42" style="fill: #3b2161;"/>
            <path d="m76.02,38.59l-22.79-12.4c-.9.81-1.77,1.69-2.59,2.62l22.79,12.4c.82-.93,1.69-1.81,2.59-2.62" style="fill: #391f5e;"/>
            <path d="m73.43,41.21l-22.79-12.4c-.09.1-.17.19-.26.29-1,1.16-1.95,2.38-2.84,3.65l22.79,12.4c.9-1.28,1.84-2.49,2.84-3.65.08-.1.17-.2.26-.29" style="fill: #371c5b;"/>
            <path d="m70.33,45.15l-22.79-12.4c-1.12,1.59-2.16,3.28-3.11,5.06l22.79,12.4c.96-1.78,1.99-3.46,3.11-5.06" style="fill: #341a58;"/>
            <path d="m67.22,50.21l-22.79-12.4c-1.26,2.35-2.39,4.86-3.37,7.53l22.79,12.4c.98-2.67,2.1-5.18,3.37-7.53" style="fill: #321855;"/>
            <path d="m63.85,57.74l-22.79-12.4c-.77,2.09-1.45,4.27-2.04,6.55-2.39,9.18-3.59,19.12-3.61,29.84-.02,13.31,1.31,24.74,3.99,34.26,2.68,9.52,6.84,16.62,12.47,21.28,1.18.98,2.43,1.83,3.75,2.55l22.79,12.4c-1.32-.72-2.57-1.57-3.75-2.55-5.63-4.66-9.79-11.76-12.47-21.28-2.68-9.52-4.01-20.95-3.99-34.26.02-10.71,1.22-20.66,3.61-29.84.6-2.28,1.28-4.46,2.04-6.55" style="fill: #301552;"/>
          </g>
        </g>
      </g>
      <g style="isolation: isolate;">
        <g style="clip-path: url(#clippath-5);">
          <g style="isolation: isolate;">
            <path d="m52.43,166.29l-22.79-12.4c-9.24-5.02-16.36-12.54-21.36-22.54C2.72,120.26-.03,106.58,0,90.3c.02-12.8,2.05-24.67,6.07-35.6l22.79,12.4c-4.02,10.94-6.04,22.8-6.07,35.6-.03,16.28,2.72,29.96,8.28,41.05,5,10,12.12,17.51,21.36,22.54" style="fill: #301552;"/>
            <path d="m28.86,67.09l-22.79-12.4c.81-2.2,1.69-4.35,2.66-6.47.81-1.77,1.67-3.5,2.58-5.19l22.79,12.4c-.91,1.69-1.77,3.42-2.58,5.19-.97,2.12-1.86,4.28-2.66,6.47" style="fill: #321855;"/>
            <path d="m34.1,55.43l-22.79-12.4c1.58-2.93,3.31-5.74,5.18-8.41l22.79,12.4c-1.88,2.68-3.6,5.48-5.18,8.41" style="fill: #341a58;"/>
            <path d="m39.28,47.01l-22.79-12.4c1.73-2.47,3.6-4.84,5.59-7.09l22.79,12.4c-1.99,2.25-3.85,4.62-5.59,7.09" style="fill: #371c5b;"/>
            <path d="m44.87,39.93l-22.79-12.4c2.05-2.32,4.23-4.52,6.54-6.6l22.79,12.4c-2.32,2.09-4.5,4.29-6.54,6.6" style="fill: #391f5e;"/>
            <path d="m51.41,33.32l-22.79-12.4c1.63-1.47,3.32-2.87,5.08-4.22.97-.74,1.95-1.46,2.95-2.15l22.79,12.4c-1,.69-1.98,1.41-2.95,2.15-1.76,1.35-3.46,2.76-5.08,4.22" style="fill: #3b2161;"/>
            <path d="m59.44,26.95l-22.79-12.4c3.39-2.35,6.98-4.41,10.76-6.19l22.79,12.4c-3.78,1.78-7.37,3.85-10.76,6.19" style="fill: #3d2364;"/>
            <path d="m70.2,20.76l-22.79-12.4c7.62-3.59,16.03-6.04,25.22-7.33,11.66-1.64,21.87-1.32,30.63.95l22.79,12.4c-8.76-2.27-18.97-2.59-30.63-.95-9.19,1.29-17.6,3.74-25.22,7.33" style="fill: #3f2568;"/>
            <path d="m126.05,14.38L103.25,1.98c3.35.87,6.48,2.02,9.4,3.46l22.79,12.4c-2.92-1.44-6.06-2.59-9.4-3.46" style="fill: #3d2364;"/>
            <path d="m135.45,17.84l-22.79-12.4c.2.1.4.2.59.3.44.22.87.45,1.3.69l22.79,12.4c-.43-.23-.86-.46-1.3-.69-.2-.1-.39-.2-.59-.3" style="fill: #3b2161;"/>
          </g>
        </g>
      </g>
    </g>
  </g>
</svg>