<?xml version="1.0" encoding="UTF-8"?>
<svg id="Layer_2" data-name="Layer 2" xmlns="http://www.w3.org/2000/svg" xmlns:xlink="http://www.w3.org/1999/xlink" viewBox="0 0 171.72 184.72">
  <defs>
    <clipPath id="clippath">
      <path d="m158.39,151.17l-22.79-12.4c.53.29,1.05.5,1.58.64l22.79,12.4c-.52-.14-1.05-.35-1.58-.64Z" style="fill: none;"/>
    </clipPath>
    <clipPath id="clippath-1">
      <path d="m135.6,138.77c-.53-.29-1.06-.65-1.58-1.09-1.05-.87-2.01-1.91-2.86-3.13l22.79,12.4c.85,1.22,1.81,2.26,2.86,3.13.53.44,1.06.8,1.58,1.09-6.84-3.72-15.96-8.68-22.79-12.4Z" style="fill: none;"/>
    </clipPath>
    <clipPath id="clippath-2">
      <path d="m159.11,27.85c-.92.55-1.96,1.45-3.11,2.71-1.16,1.25-2.2,2.54-3.12,3.87l-22.79-12.4c.92-1.33,1.97-2.62,3.12-3.87,1.16-1.26,2.19-2.16,3.11-2.71l22.79,12.4Z" style="fill: none;"/>
    </clipPath>
    <clipPath id="clippath-3">
      <path d="m35.08,169.15l-22.79-12.4c1.25-.67,2.42-1.66,3.51-2.98,1.09-1.31,2.1-2.64,3.02-3.96l22.79,12.4c-.92,1.32-1.93,2.65-3.02,3.96-1.09,1.32-2.26,2.31-3.51,2.98Z" style="fill: none;"/>
    </clipPath>
    <clipPath id="clippath-4">
      <path d="m15.64,33.12l22.79,12.4c.53.29,1.05.65,1.57,1.08,1.09.9,1.99,1.87,2.71,2.9l-22.79-12.4c-.72-1.02-1.62-1.99-2.71-2.9-.52-.43-1.04-.79-1.57-1.08Z" style="fill: none;"/>
    </clipPath>
    <clipPath id="clippath-5">
      <path d="m38.43,45.52c-.58-.31-1.16-.54-1.74-.68l-22.79-12.4c.59.14,1.17.37,1.74.68,6.84,3.72,15.96,8.68,22.79,12.4Z" style="fill: none;"/>
    </clipPath>
  </defs>
  <g id="Layer_3" data-name="Layer 3">
    <g style="isolation: isolate;">
      <polygon points="171.72 154.7 171.71 163.79 148.91 151.39 148.93 142.3 171.72 154.7" style="fill: #2f1451;"/>
      <polygon points="159.97 151.81 137.17 139.41 148.93 142.3 171.72 154.7 159.97 151.81" style="fill: #402668;"/>
      <g style="isolation: isolate;">
        <g style="clip-path: url(#clippath);">
          <g style="isolation: isolate;">
            <path d="m158.39,151.17l-22.79-12.4c.1.05.19.1.29.15l22.79,12.4c-.1-.05-.19-.1-.29-.15" style="fill: #3b2161;"/>
            <path d="m158.68,151.32l-22.79-12.4c.43.21.86.37,1.29.49l22.79,12.4c-.43-.11-.86-.27-1.29-.49" style="fill: #3d2364;"/>
          </g>
        </g>
      </g>
      <g style="isolation: isolate;">
        <g style="clip-path: url(#clippath-1);">
          <g style="isolation: isolate;">
            <path d="m153.94,146.95l-22.79-12.4c.85,1.22,1.81,2.26,2.86,3.13.53.44,1.06.8,1.58,1.09l22.79,12.4c-.53-.29-1.06-.65-1.58-1.09-1.05-.87-2.01-1.91-2.86-3.13" style="fill: #301552;"/>
          </g>
        </g>
      </g>
      <polygon points="171.71 163.79 105.46 173.1 82.67 160.7 148.91 151.39 171.71 163.79" style="fill: #442a6f;"/>
      <polygon points="105.46 173.1 82.67 160.7 82.68 151.61 105.48 164.01 105.46 173.1" style="fill: #2f1451;"/>
      <polygon points="105.48 164.01 82.68 151.61 95.95 143.4 118.74 155.8 105.48 164.01" style="fill: #42286c;"/>
      <polygon points="170.51 12.4 170.49 21.49 147.7 9.09 147.71 0 170.51 12.4" style="fill: #2f1451;"/>
      <polygon points="170.49 21.49 159.11 27.85 136.31 15.45 147.7 9.09 170.49 21.49" style="fill: #43296d;"/>
      <g style="isolation: isolate;">
        <g style="clip-path: url(#clippath-2);">
          <g style="isolation: isolate;">
            <path d="m159.11,27.85l-22.79-12.4c-.15.09-.3.18-.45.29l22.79,12.4c.15-.11.3-.2.45-.29" style="fill: #3d2364;"/>
            <path d="m158.66,28.14l-22.79-12.4c-.39.27-.79.59-1.22.98l22.79,12.4c.43-.38.83-.71,1.22-.98" style="fill: #3b2161;"/>
            <path d="m157.44,29.11l-22.79-12.4c-.46.41-.94.89-1.45,1.45-.2.22-.4.43-.59.65l22.79,12.4c.19-.22.39-.44.59-.65.5-.55.99-1.03,1.45-1.45" style="fill: #391f5e;"/>
            <path d="m155.4,31.21l-22.79-12.4c-.88,1-1.7,2.03-2.44,3.08l22.79,12.4c.74-1.05,1.55-2.08,2.44-3.08" style="fill: #371c5b;"/>
            <path d="m152.97,34.29l-22.79-12.4s-.06.09-.1.14l22.79,12.4s.06-.09.1-.14" style="fill: #341a58;"/>
          </g>
        </g>
      </g>
      <polygon points="118.74 155.8 95.95 143.4 75.53 114.35 98.32 126.75 118.74 155.8" style="fill: #2e124f;"/>
      <polygon points="72.94 168.58 72.92 177.67 50.13 165.27 50.15 156.19 72.94 168.58" style="fill: #2f1451;"/>
      <polygon points="152.87 34.43 114.51 91.61 91.72 79.21 130.08 22.03 152.87 34.43" style="fill: #3a2060;"/>
      <polygon points="114.51 91.61 153.94 146.95 131.15 134.55 91.72 79.21 114.51 91.61" style="fill: #2e124f;"/>
      <polygon points="98.32 126.75 75.53 114.35 69.42 103.06 92.22 115.46 98.32 126.75" style="fill: #2e124f;"/>
      <polygon points="92.22 115.46 91.63 115.54 68.83 103.14 69.42 103.06 92.22 115.46" style="fill: #442a6f;"/>
      <polygon points="60.4 163.26 37.61 150.86 50.15 156.19 72.94 168.58 60.4 163.26" style="fill: #3d2364;"/>
      <polygon points="91.63 115.54 60.4 163.26 37.61 150.86 68.83 103.14 91.63 115.54" style="fill: #3a2060;"/>
      <polygon points="104.14 79.75 81.35 67.35 111.1 21.32 133.89 33.72 104.14 79.75" style="fill: #3a2060;"/>
      <polygon points="103.55 79.83 80.76 67.43 81.35 67.35 104.14 79.75 103.55 79.83" style="fill: #442a6f;"/>
      <polygon points="133.89 33.72 121.25 28.41 98.46 16.01 111.1 21.32 133.89 33.72" style="fill: #3d2364;"/>
      <polygon points="97.45 68.32 103.55 79.83 80.76 67.43 74.65 55.92 97.45 68.32" style="fill: #2e124f;"/>
      <polygon points="121.27 19.32 98.47 6.92 147.71 0 170.51 12.4 121.27 19.32" style="fill: #442a6f;"/>
      <polygon points="121.25 28.41 98.46 16.01 98.47 6.92 121.27 19.32 121.25 28.41" style="fill: #2f1451;"/>
      <polygon points="41.61 162.21 18.82 149.81 58.38 91.29 81.17 103.69 41.61 162.21" style="fill: #3a2061;"/>
      <polygon points="72.92 177.67 22.79 184.72 0 172.32 50.13 165.27 72.92 177.67" style="fill: #442a6f;"/>
      <g style="isolation: isolate;">
        <g style="clip-path: url(#clippath-3);">
          <g style="isolation: isolate;">
            <path d="m35.08,169.15l-22.79-12.4c.32-.17.64-.37.95-.58l22.79,12.4c-.31.22-.63.41-.95.58" style="fill: #3d2364;"/>
            <path d="m36.04,168.57l-22.79-12.4c.38-.27.76-.56,1.13-.89l22.79,12.4c-.37.33-.74.63-1.13.89" style="fill: #3b2161;"/>
            <path d="m37.16,167.67l-22.79-12.4c.37-.34.74-.71,1.1-1.11l22.79,12.4c-.36.41-.72.78-1.1,1.11" style="fill: #391f5e;"/>
            <path d="m38.26,166.56l-22.79-12.4c.11-.13.22-.26.33-.39,1.06-1.27,2.04-2.56,2.94-3.85l22.79,12.4c-.9,1.29-1.88,2.57-2.94,3.85-.11.13-.22.26-.33.39" style="fill: #371c5b;"/>
            <path d="m41.54,162.32l-22.79-12.4s.05-.07.08-.11l22.79,12.4s-.05.07-.08.11" style="fill: #341a58;"/>
          </g>
        </g>
      </g>
      <polygon points="22.81 175.63 .02 163.23 12.29 156.75 35.08 169.15 22.81 175.63" style="fill: #43296d;"/>
      <polygon points="22.79 184.72 0 172.32 .02 163.23 22.81 175.63 22.79 184.72" style="fill: #2f1451;"/>
      <polygon points="91.4 23.52 91.39 32.6 68.59 20.2 68.61 11.12 91.4 23.52" style="fill: #2f1451;"/>
      <polygon points="91.39 32.6 78.13 40.71 55.33 28.31 68.59 20.2 91.39 32.6" style="fill: #43286c;"/>
      <polygon points="78.13 40.71 97.45 68.32 74.65 55.92 55.33 28.31 78.13 40.71" style="fill: #2e124f;"/>
      <polygon points="81.17 103.69 58.38 91.29 19.92 37.09 42.71 49.49 81.17 103.69" style="fill: #2e124f;"/>
      <g style="isolation: isolate;">
        <g style="clip-path: url(#clippath-4);">
          <g style="isolation: isolate;">
            <path d="m42.71,49.49l-22.79-12.4c-.72-1.02-1.62-1.99-2.71-2.9-.52-.43-1.04-.79-1.57-1.08l22.79,12.4c.53.29,1.05.65,1.57,1.08,1.09.9,1.99,1.87,2.71,2.9" style="fill: #301552;"/>
          </g>
        </g>
      </g>
      <g style="isolation: isolate;">
        <g style="clip-path: url(#clippath-5);">
          <g style="isolation: isolate;">
            <path d="m38.43,45.52l-22.79-12.4c-.1-.05-.19-.1-.29-.15l22.79,12.4c.1.05.19.1.29.15" style="fill: #3b2161;"/>
            <path d="m38.14,45.37l-22.79-12.4c-.44-.22-.88-.38-1.32-.5l22.79,12.4c.44.12.89.28,1.32.5" style="fill: #3d2364;"/>
            <path d="m36.82,44.87l-22.79-12.4s-.09-.02-.13-.03l22.79,12.4s.09.02.13.03" style="fill: #3f2568;"/>
          </g>
        </g>
      </g>
      <polygon points="36.69 44.84 24.84 41.96 2.04 29.56 13.9 32.44 36.69 44.84" style="fill: #402668;"/>
      <polygon points="24.84 41.96 2.04 29.56 2.06 20.47 24.85 32.87 24.84 41.96" style="fill: #2f1451;"/>
      <polygon points="24.85 32.87 2.06 20.47 68.61 11.12 91.4 23.52 24.85 32.87" style="fill: #442a6f;"/>
    </g>
  </g>
</svg>